<svg xmlns="http://www.w3.org/2000/svg" width="960" height="960" version="1" viewBox="0 0 720 720"><path d="M206.9 86c-.1.8-.2 22.8-.2 48.9l-.2 47.3-9.2 4.3c-22 10.3-43.3 27.7-60.6 49.5-3.7 4.7-7.1 9-7.6 9.5-.4.6-3.1 5-6 9.8-6.8 11.3-12.3 24.9-12.5 30.9 0 2.5-.5 4.4-.9 4.1-.4-.2-.6 4.4-.4 10.4.7 17.1 3.3 22.4 19.1 37.6 5 4.9 24.7 24.3 43.7 43.2l34.5 34.4-.1 109.3c0 60.1.1 110.2.3 111.4.3 1.7 1 2 3.4 1.8 1.6-.2 3.4-.6 3.9-.9.5-.4.9 0 .9.7 0 .9.3.9 1-.2.8-1.2 1-1.2 1-.1 0 1 .3 1.1 1.3.2.8-.6 1.7-.8 2.1-.4 1.1 1.1 3.6 1.2 3.6.1 0-.7.4-.7 1.3 0 .7.6 1.8.7 2.6.3.8-.5 2.5-.5 4-.1 1.4.4 3.6.3 4.9-.1 1.5-.6 2.2-.5 2.2.4 0 .8.4.6 1-.3.8-1.2 1-1.2 1-.1 0 1 .3 1.1 1.3.2.8-.6 1.7-.8 2.1-.4 1.1 1.1 3.6 1.2 3.6.1 0-.7.4-.7 1.3 0 .7.6 1.8.7 2.6.3.8-.5 2.5-.5 4-.1 1.4.4 3.6.3 4.9-.1 1.5-.6 2.2-.5 2.2.4 0 .8.4.6 1-.3.8-1.2 1-1.2 1-.1 0 1 .3 1.1 1.3.2.8-.6 1.7-.8 2.1-.4 1.1 1.1 3.6 1.2 3.6.1 0-.7.4-.7 1.3 0 .7.6 1.8.7 2.6.3.8-.5 2.5-.5 4-.1 1.4.4 3.6.3 4.9-.1 1.5-.6 2.2-.5 2.2.4 0 .8.4.6 1-.3.8-1.2 1-1.2 1-.1 0 1 .3 1.1 1.3.2.8-.6 1.7-.8 2.1-.4 1.1 1.1 3.6 1.2 3.6.1 0-.7.4-.7 1.3 0 .7.6 1.8.7 2.7.2.7-.4 2.3-.5 3.4-.1 1.9.6 7.7.7 8.4.1.7-.7 2.8-.5 3.3.3.4.5 1.3.6 2 .1 1.8-1.1 5.9-1.2 5.9-.1 0 .4.4.5 1 .2.5-.3 7.4-.8 15.2-1 48.8-1.6 84.7-12.3 119.8-35.8 15.5-10.4 35.1-28 45-40.6 1.9-2.4 4-4.8 4.5-5.5 2.6-2.8 11.6-15.9 16.6-24.1 10.3-16.8 19-35.8 26.4-58 2.6-7.9 8.8-31.2 9.8-37 .3-1.7 1-5.5 1.6-8.5 3.5-18.3 5.3-39.3 5.4-63.5 0-21.1-.8-37.1-2.9-51.5-.3-2.5-.8-5.8-1-7.3-.9-7.2-1.6-11.5-2.4-14.7-.5-1.9-1.1-4.9-1.3-6.5-1.6-10.9-9.7-36.7-18.3-58.5-2.8-7.1-13.6-27.7-19.2-36.8-29.9-48.1-75.6-82.8-126.9-96.2-7.4-1.9-28.7-5.4-39.8-6.4-15.9-1.6-28.5-1.8-86.7-2-56-.2-62.8 0-62.9 1.4zm127.4 88.4c8.5.4 16.5.9 17.8 1.1 1.3.2 4.2.6 6.4.9 29.3 4.2 50 14.6 70.5 35.5 24.3 24.7 43.4 64 49.4 101.6.2 1.6.8 5 1.2 7.5 2 12.9 2.7 22.5 2.8 38.5 0 14-.8 30.7-1.8 36.5-.3 1.4-.7 4.7-1.1 7.5-1.4 11.5-5 27-9.7 41-2.8 8.5-10.4 27.2-11.7 28.7-.3.4-.6-1.3-.7-3.8 0-4.4-.3-4.7-15-19.4-8.2-8.3-14.9-15.3-14.9-15.7 0-.5 1.3-3.2 2.9-6.2 5.8-11.1 7.9-22 5.4-27.8-.7-1.8-19.4-21.4-41.5-43.8l-40.2-40.6.6-7.8c1.1-14.6-2-22.2-14.2-34.7-10.3-10.6-31.5-32.5-43.1-44.5l-9-9.4.1-22c0-12.1.3-22.5.7-23 .7-1.1 20.7-1.2 45.1-.1zm3.1 333.1c8 0 11.8-1.3 24.8-8.3.3-.2 8.6 7.6 18.3 17.3 14.4 14.4 17.7 17.3 18.2 15.7.3-1.2 2.3-2.7 5.1-3.7 5.3-2 16.1-9.2 24.1-16 6.9-5.9 8-5.8 1.5.2-12.8 12-21.9 18.4-33.6 23.7-8.1 3.7-21.5 8.2-26.7 9.1-1.9.3-3.7.7-4 .9-.3.2-3.5.7-7.1 1.1-3.6.4-7.8.9-9.5 1.2-1.6.2-15.8.6-31.5 1l-28.6.6v-84.4l20.5 20.8 20.5 20.8h8zm103.6-7.1c0 .2-.8 1-1.7 1.7-1.6 1.3-1.7 1.2-.4-.4 1.3-1.6 2.1-2.1 2.1-1.3zm-4 4c0 .2-.8 1-1.7 1.7-1.6 1.3-1.7 1.2-.4-.4 1.3-1.6 2.1-2.1 2.1-1.3zM533 554.3c-.8.7-2.9 2.9-4.7 4.9l-3.2 3.8-3.6-3.2-3.7-3.1-2.9 3.4c-3.1 3.7-3.4 4.5-1.9 5.4 1.7 1.1 1.1 4.1-1.2 6.2-1.3 1.1-4.8 2.8-7.8 3.7-3.9 1.2-6.8 2.9-9.9 6l-4.4 4.4 3.2 3.3 3.2 3.4-5.1 4.5c-3.3 3-5 5.3-5 6.8 0 1.7 3.4 5.8 11.2 13.8 13.9 14.3 14.1 14.3 25.4 4.7 10-8.5 32.1-30.7 35.6-35.9 4.8-7.1 4.4-8.5-5.4-18.2-10.8-10.6-16.1-15.2-17.3-15.2-.5 0-1.7.6-2.5 1.3zm8.2 16.4l4.7 4.7-3.7 4.5c-5.5 6.7-10.1 10.7-16.3 14-5.5 3-22.5 9.1-25 9.1-.8 0 .6-1.7 3.1-3.7 6.5-5.4 17.5-16.7 24.9-25.6 3.5-4.2 6.6-7.7 7-7.7.3 0 2.7 2.1 5.3 4.7z"/></svg>